# Blender v2.79 (sub 0) OBJ File: 'satellite_02.blend'
# www.blender.org
mtllib satellite.mtl
o Cylinder
v 0.000000 -1.000000 -0.303113
v 0.000000 1.000000 -0.303113
v 0.059135 -1.000000 -0.297289
v 0.059135 1.000000 -0.297289
v 0.115997 -1.000000 -0.280040
v 0.115997 1.000000 -0.280040
v 0.168401 -1.000000 -0.252030
v 0.168401 1.000000 -0.252030
v 0.214334 -1.000000 -0.214334
v 0.214334 1.000000 -0.214334
v 0.252030 -1.000000 -0.168401
v 0.252030 1.000000 -0.168401
v 0.280040 -1.000000 -0.115996
v 0.280040 1.000000 -0.115996
v 0.297289 -1.000000 -0.059135
v 0.297289 1.000000 -0.059135
v 0.303113 -1.000000 -0.000000
v 0.303113 1.000000 -0.000000
v 0.297289 -1.000000 0.059134
v 0.297289 1.000000 0.059134
v 0.280040 -1.000000 0.115996
v 0.280040 1.000000 0.115996
v 0.252030 -1.000000 0.168401
v 0.252030 1.000000 0.168401
v 0.214334 -1.000000 0.214334
v 0.214334 1.000000 0.214334
v 0.168401 -1.000000 0.252030
v 0.168401 1.000000 0.252030
v 0.115996 -1.000000 0.280040
v 0.115996 1.000000 0.280040
v 0.059134 -1.000000 0.297289
v 0.059134 1.000000 0.297289
v -0.000000 -1.000000 0.303113
v -0.000000 1.000000 0.303113
v -0.059135 -1.000000 0.297289
v -0.059135 1.000000 0.297289
v -0.115997 -1.000000 0.280040
v -0.115997 1.000000 0.280040
v -0.168401 -1.000000 0.252030
v -0.168401 1.000000 0.252030
v -0.214334 -1.000000 0.214333
v -0.214334 1.000000 0.214333
v -0.252030 -1.000000 0.168401
v -0.252030 1.000000 0.168401
v -0.280040 -1.000000 0.115996
v -0.280040 1.000000 0.115996
v -0.297289 -1.000000 0.059134
v -0.297289 1.000000 0.059134
v -0.303113 -1.000000 -0.000000
v -0.303113 1.000000 -0.000000
v -0.297289 -1.000000 -0.059135
v -0.297289 1.000000 -0.059135
v -0.280040 -1.000000 -0.115997
v -0.280040 1.000000 -0.115997
v -0.252029 -1.000000 -0.168401
v -0.252029 1.000000 -0.168401
v -0.214333 -1.000000 -0.214334
v -0.214333 1.000000 -0.214334
v -0.168400 -1.000000 -0.252030
v -0.168400 1.000000 -0.252030
v -0.115996 -1.000000 -0.280041
v -0.115996 1.000000 -0.280041
v -0.059134 -1.000000 -0.297289
v -0.059134 1.000000 -0.297289
v 0.000000 0.060498 -0.303113
v 0.059135 0.060498 -0.297289
v 0.115997 0.060498 -0.280040
v 0.168401 0.060498 -0.252030
v 0.214334 0.060498 -0.214334
v 0.252030 0.060498 -0.168401
v 0.280040 0.060498 -0.115996
v 0.297289 0.060498 -0.059135
v 0.303113 0.060498 -0.000000
v 0.297289 0.060498 0.059134
v 0.280040 0.060498 0.115996
v 0.252030 0.060498 0.168401
v 0.214334 0.060498 0.214334
v 0.168401 0.060498 0.252030
v 0.115996 0.060498 0.280040
v 0.059134 0.060498 0.297289
v -0.000000 0.060498 0.303113
v -0.059135 0.060498 0.297289
v -0.115997 0.060498 0.280040
v -0.168401 0.060498 0.252030
v -0.214334 0.060498 0.214333
v -0.252030 0.060498 0.168401
v -0.280040 0.060498 0.115996
v -0.297289 0.060498 0.059134
v -0.303113 0.060498 -0.000000
v -0.297289 0.060498 -0.059135
v -0.280040 0.060498 -0.115997
v -0.252029 0.060498 -0.168401
v -0.214333 0.060498 -0.214334
v -0.168400 0.060498 -0.252030
v -0.115996 0.060498 -0.280041
v -0.059134 0.060498 -0.297289
v 0.059135 -0.064994 -0.297289
v 0.115997 -0.064994 -0.280040
v 0.168401 -0.064994 -0.252030
v 0.214334 -0.064994 -0.214334
v 0.252030 -0.064994 -0.168401
v 0.280040 -0.064994 -0.115996
v 0.297289 -0.064994 -0.059135
v 0.303113 -0.064994 -0.000000
v 0.297289 -0.064994 0.059134
v 0.280040 -0.064994 0.115996
v 0.252030 -0.064994 0.168401
v 0.214334 -0.064994 0.214334
v 0.168401 -0.064994 0.252030
v 0.115996 -0.064994 0.280040
v 0.059134 -0.064994 0.297289
v -0.000000 -0.064994 0.303113
v -0.059135 -0.064994 0.297289
v -0.115997 -0.064994 0.280040
v -0.168401 -0.064994 0.252030
v -0.214334 -0.064994 0.214333
v -0.252030 -0.064994 0.168401
v -0.280040 -0.064994 0.115996
v -0.297289 -0.064994 0.059134
v -0.303113 -0.064994 -0.000000
v -0.297289 -0.064994 -0.059135
v -0.280040 -0.064994 -0.115997
v -0.252029 -0.064994 -0.168401
v -0.214333 -0.064994 -0.214334
v -0.168400 -0.064994 -0.252030
v -0.115996 -0.064994 -0.280041
v -0.059134 -0.064994 -0.297289
v 0.000000 -0.064994 -0.303113
v 0.059134 0.060498 1.598893
v -0.000000 0.060498 1.598893
v -0.059135 0.060498 1.598893
v 0.059134 -0.064994 1.598893
v -0.000000 -0.064994 1.598893
v -0.059135 -0.064994 1.598893
v 0.000000 0.060498 -1.506270
v 0.059135 0.060498 -1.506270
v -0.059134 0.060498 -1.506270
v 0.059135 -0.064994 -1.506270
v -0.059134 -0.064994 -1.506270
v 0.000000 -0.064994 -1.506270
v 0.000000 0.060498 -0.804766
v -0.059134 0.060498 -0.801370
v 0.000000 -0.064994 -0.804766
v 0.059135 -0.064994 -0.801370
v 0.059135 0.060498 -0.801370
v -0.059134 -0.064994 -0.801370
v -0.059135 0.060498 0.760642
v -0.000000 0.060498 0.764105
v -0.059135 -0.064994 0.760642
v 0.059134 -0.064994 0.760642
v -0.000000 -0.064994 0.764105
v 0.059134 0.060498 0.760642
v 0.000000 1.060498 -1.506270
v 0.059135 1.060498 -1.506270
v -0.059134 1.060498 -1.506270
v 0.000000 1.060498 -0.804766
v -0.059134 1.060498 -0.801370
v 0.059135 1.060498 -0.801370
v 0.059135 -1.064994 -1.506270
v -0.059134 -1.064994 -1.506270
v 0.000000 -1.064994 -1.506270
v 0.000000 -1.064994 -0.804766
v 0.059135 -1.064994 -0.801370
v -0.059134 -1.064994 -0.801370
v 0.059134 -1.064994 1.598893
v -0.000000 -1.064994 1.598893
v -0.059135 -1.064994 1.598893
v -0.059135 -1.064994 0.760642
v 0.059134 -1.064994 0.760642
v -0.000000 -1.064994 0.764105
v 0.059134 1.060498 1.598893
v -0.000000 1.060498 1.598893
v -0.059135 1.060498 1.598893
v -0.059135 1.060498 0.760642
v -0.000000 1.060498 0.764105
v 0.059134 1.060498 0.760642
vt 0.540501 0.757012
vt 0.563990 0.869591
vt 0.540500 0.869591
vt 0.563991 0.757012
vt 0.587481 0.869591
vt 0.587481 0.757012
vt 0.610971 0.869591
vt 0.610972 0.757012
vt 0.634462 0.869591
vt 0.634462 0.757012
vt 0.657952 0.869591
vt 0.657953 0.757013
vt 0.681442 0.869592
vt 0.681443 0.757013
vt 0.704933 0.869592
vt 0.704934 0.757013
vt 0.728423 0.869592
vt 0.728424 0.757013
vt 0.751914 0.869592
vt 0.000220 0.757010
vt 0.023710 0.869589
vt 0.000220 0.869589
vt 0.023710 0.757010
vt 0.047201 0.869589
vt 0.047201 0.757010
vt 0.070691 0.869589
vt 0.070691 0.757010
vt 0.094182 0.869589
vt 0.094182 0.757010
vt 0.117672 0.869589
vt 0.117672 0.757010
vt 0.141163 0.869589
vt 0.141163 0.757010
vt 0.164653 0.869589
vt 0.164653 0.757010
vt 0.188144 0.869589
vt 0.188144 0.757010
vt 0.211634 0.869589
vt 0.211634 0.757010
vt 0.235124 0.869589
vt 0.235125 0.757010
vt 0.258615 0.869589
vt 0.258615 0.757011
vt 0.282105 0.869590
vt 0.282106 0.757011
vt 0.305596 0.869590
vt 0.305596 0.757011
vt 0.329086 0.869590
vt 0.329087 0.757011
vt 0.352577 0.869590
vt 0.352577 0.757011
vt 0.376067 0.869590
vt 0.376067 0.757011
vt 0.399557 0.869590
vt 0.399558 0.757011
vt 0.423048 0.869590
vt 0.423048 0.757011
vt 0.446538 0.869590
vt 0.446539 0.757011
vt 0.470029 0.869590
vt 0.470029 0.757011
vt 0.493519 0.869590
vt 0.353449 0.502899
vt 0.433332 0.353446
vt 0.582786 0.433331
vt 0.493520 0.757012
vt 0.517010 0.869590
vt 0.517010 0.757012
vt 0.826311 0.456369
vt 0.718805 0.587365
vt 0.587808 0.479859
vt 0.395697 0.166802
vt 0.674361 0.046974
vt 0.674361 0.166803
vt 0.517010 0.884628
vt 0.493519 0.884628
vt 0.470029 0.884628
vt 0.446538 0.884628
vt 0.423048 0.884628
vt 0.399557 0.884627
vt 0.376067 0.884627
vt 0.352577 0.884627
vt 0.329086 0.884627
vt 0.305596 0.884627
vt 0.282105 0.884627
vt 0.258615 0.884627
vt 0.235124 0.884627
vt 0.211634 0.884627
vt 0.188143 0.884627
vt 0.166804 0.756570
vt 0.181842 0.425190
vt 0.181842 0.756570
vt 0.181841 0.023638
vt 0.301669 0.047055
vt 0.181842 0.047055
vt 0.141163 0.884627
vt 0.117672 0.884627
vt 0.094182 0.884627
vt 0.070691 0.884627
vt 0.047201 0.884627
vt 0.023710 0.884627
vt 0.000220 0.884627
vt 0.751914 0.884629
vt 0.728423 0.884629
vt 0.704933 0.884629
vt 0.681442 0.884629
vt 0.657952 0.884629
vt 0.634461 0.884629
vt 0.610971 0.884629
vt 0.587481 0.884628
vt 0.563990 0.884628
vt 0.999780 0.181841
vt 0.721115 0.301669
vt 0.721115 0.181840
vt 0.540500 0.884628
vt 0.563990 0.996668
vt 0.540499 0.996668
vt 0.587480 0.996668
vt 0.610970 0.996668
vt 0.634461 0.996669
vt 0.657951 0.996669
vt 0.681442 0.996669
vt 0.704932 0.996669
vt 0.728422 0.996669
vt 0.751913 0.996669
vt 0.023710 0.996667
vt 0.000220 0.996667
vt 0.047201 0.996667
vt 0.070691 0.996667
vt 0.094182 0.996667
vt 0.117672 0.996667
vt 0.141162 0.996667
vt 0.164653 0.996667
vt 0.164653 0.884627
vt 0.188143 0.996667
vt 0.211634 0.996667
vt 0.235124 0.996667
vt 0.258615 0.996667
vt 0.282105 0.996667
vt 0.305595 0.996667
vt 0.329086 0.996667
vt 0.352576 0.996667
vt 0.376067 0.996667
vt 0.399557 0.996667
vt 0.423047 0.996668
vt 0.446538 0.996668
vt 0.470028 0.996668
vt 0.493519 0.996668
vt 0.517009 0.996668
vt 0.181842 0.401812
vt 0.166804 0.425190
vt 0.166804 0.401812
vt 0.181842 0.378435
vt 0.166804 0.378435
vt 0.166804 0.047055
vt 0.046976 0.023637
vt 0.166804 0.023638
vt 0.301671 0.401813
vt 0.046975 0.378435
vt 0.697738 0.166803
vt 0.721115 0.166803
vt 0.697738 0.181840
vt 0.674361 0.301668
vt 0.674361 0.181840
vt 0.721116 0.046975
vt 0.999780 0.166803
vt 0.395697 0.181840
vt 0.348866 0.634559
vt 0.548141 0.649597
vt 0.348866 0.649597
vt 0.348866 0.696351
vt 0.548141 0.711389
vt 0.348866 0.711389
vt 0.351168 0.611182
vt 0.548141 0.587805
vt 0.549484 0.611182
vt 0.351168 0.672974
vt 0.549484 0.672974
vt 0.548141 0.696352
vt 0.548141 0.634559
vt 0.749612 0.656363
vt 0.568740 0.632986
vt 0.751915 0.632986
vt 0.749612 0.718155
vt 0.568740 0.694778
vt 0.751914 0.694778
vt 0.568740 0.679740
vt 0.751914 0.679741
vt 0.567371 0.656363
vt 0.568740 0.741533
vt 0.567371 0.718155
vt 0.751914 0.756570
vt 0.751914 0.741533
vt 0.397039 0.325045
vt 0.674360 0.348423
vt 0.395697 0.348422
vt 0.674360 0.325046
vt 0.372281 0.181840
vt 0.348866 0.301668
vt 0.348866 0.181840
vt 0.697738 0.301669
vt 0.372281 0.301668
vt 0.395697 0.301668
vt 0.397040 0.023597
vt 0.395697 0.046974
vt 0.674361 0.000220
vt 0.674361 0.023597
vt 0.999780 0.046975
vt 0.348866 0.166802
vt 0.372282 0.046974
vt 0.372282 0.166802
vt 0.697738 0.046975
vt 0.023599 0.048423
vt 0.023597 0.378435
vt 0.000220 0.378435
vt 0.000221 0.047054
vt 0.046975 0.425190
vt 0.046975 0.401812
vt 0.046976 0.000220
vt 0.166804 0.000220
vt 0.046976 0.047055
vt 0.325047 0.048423
vt 0.348426 0.378435
vt 0.325048 0.378435
vt 0.301671 0.378435
vt 0.301670 0.756570
vt 0.181841 0.000220
vt 0.301669 0.023637
vt 0.301671 0.425190
vt 0.751915 0.757013
vt 0.502901 0.582782
vt 0.479862 0.587365
vt 0.456372 0.587365
vt 0.433333 0.582782
vt 0.411630 0.573793
vt 0.392099 0.560742
vt 0.375489 0.544132
vt 0.362438 0.524601
vt 0.348866 0.479860
vt 0.348866 0.456369
vt 0.353448 0.433330
vt 0.362438 0.411628
vt 0.375488 0.392096
vt 0.392098 0.375486
vt 0.411630 0.362435
vt 0.456372 0.348863
vt 0.479862 0.348863
vt 0.502901 0.353446
vt 0.524604 0.362435
vt 0.544136 0.375486
vt 0.560746 0.392096
vt 0.573797 0.411628
vt 0.587368 0.456370
vt 0.587368 0.479860
vt 0.582785 0.502899
vt 0.573796 0.524601
vt 0.560745 0.544132
vt 0.544135 0.560742
vt 0.524603 0.573793
vt 0.695315 0.348863
vt 0.718805 0.348863
vt 0.741844 0.353446
vt 0.763546 0.362435
vt 0.783078 0.375486
vt 0.799688 0.392096
vt 0.812739 0.411627
vt 0.821728 0.433330
vt 0.826311 0.479859
vt 0.821728 0.502898
vt 0.812739 0.524600
vt 0.799689 0.544132
vt 0.783078 0.560742
vt 0.763547 0.573793
vt 0.741844 0.582782
vt 0.695315 0.587365
vt 0.672275 0.582782
vt 0.650573 0.573793
vt 0.631041 0.560742
vt 0.614431 0.544132
vt 0.601380 0.524600
vt 0.592391 0.502898
vt 0.587808 0.456368
vt 0.592391 0.433329
vt 0.601381 0.411627
vt 0.614431 0.392096
vt 0.631042 0.375485
vt 0.650573 0.362435
vt 0.672276 0.353446
vt 0.999780 0.301669
vt 0.348866 0.587805
vt 0.568740 0.756570
vt 0.395697 0.000220
vt 0.348866 0.046974
vt 0.046976 0.756570
vt 0.348424 0.047054
vt 0.301669 0.000220
vn 0.0980 0.0000 -0.9952
vn 0.2903 0.0000 -0.9569
vn 0.4714 0.0000 -0.8819
vn 0.6344 0.0000 -0.7730
vn 0.7730 0.0000 -0.6344
vn 0.8819 0.0000 -0.4714
vn 0.9569 0.0000 -0.2903
vn 0.9952 0.0000 -0.0980
vn 0.9952 0.0000 0.0980
vn 0.9569 0.0000 0.2903
vn 0.8819 0.0000 0.4714
vn 0.7730 0.0000 0.6344
vn 0.6344 0.0000 0.7730
vn 0.4714 0.0000 0.8819
vn 0.2903 0.0000 0.9569
vn 0.0980 0.0000 0.9952
vn -0.0980 0.0000 0.9952
vn -0.2903 0.0000 0.9569
vn -0.4714 0.0000 0.8819
vn -0.6344 0.0000 0.7730
vn -0.7730 0.0000 0.6344
vn -0.8819 0.0000 0.4714
vn -0.9569 0.0000 0.2903
vn -0.9952 0.0000 0.0980
vn -0.9952 0.0000 -0.0980
vn -0.9569 0.0000 -0.2903
vn -0.8819 0.0000 -0.4714
vn -0.7730 0.0000 -0.6344
vn -0.6344 0.0000 -0.7730
vn -0.4714 0.0000 -0.8819
vn 0.0000 1.0000 0.0000
vn -0.2903 0.0000 -0.9569
vn -0.0980 0.0000 -0.9952
vn 0.0000 -1.0000 0.0000
vn 1.0000 0.0000 0.0000
vn -1.0000 0.0000 0.0000
vn -0.0585 0.0000 -0.9983
vn 0.0000 0.0000 1.0000
vn -0.0000 0.0000 -1.0000
vn 0.0573 0.0000 0.9984
vn -0.0573 0.0000 0.9984
vn 0.0585 0.0000 -0.9983
usemtl None
s off
f 2/1/1 66/2/1 65/3/1
f 4/4/2 67/5/2 66/2/2
f 6/6/3 68/7/3 67/5/3
f 8/8/4 69/9/4 68/7/4
f 10/10/5 70/11/5 69/9/5
f 12/12/6 71/13/6 70/11/6
f 14/14/7 72/15/7 71/13/7
f 16/16/8 73/17/8 72/15/8
f 18/18/9 74/19/9 73/17/9
f 20/20/10 75/21/10 74/22/10
f 22/23/11 76/24/11 75/21/11
f 24/25/12 77/26/12 76/24/12
f 26/27/13 78/28/13 77/26/13
f 28/29/14 79/30/14 78/28/14
f 30/31/15 80/32/15 79/30/15
f 32/33/16 81/34/16 80/32/16
f 34/35/17 82/36/17 81/34/17
f 36/37/18 83/38/18 82/36/18
f 38/39/19 84/40/19 83/38/19
f 40/41/20 85/42/20 84/40/20
f 42/43/21 86/44/21 85/42/21
f 44/45/22 87/46/22 86/44/22
f 46/47/23 88/48/23 87/46/23
f 48/49/24 89/50/24 88/48/24
f 50/51/25 90/52/25 89/50/25
f 52/53/26 91/54/26 90/52/26
f 54/55/27 92/56/27 91/54/27
f 56/57/28 93/58/28 92/56/28
f 58/59/29 94/60/29 93/58/29
f 60/61/30 95/62/30 94/60/30
f 54/63/31 38/64/31 22/65/31
f 62/66/32 96/67/32 95/62/32
f 64/68/33 65/3/33 96/67/33
f 15/69/34 31/70/34 47/71/34
f 144/72/35 159/73/35 138/74/35
f 95/62/32 127/75/32 126/76/32
f 94/60/30 126/76/30 125/77/30
f 93/58/29 125/77/29 124/78/29
f 92/56/28 124/78/28 123/79/28
f 91/54/27 123/79/27 122/80/27
f 90/52/26 122/80/26 121/81/26
f 89/50/25 121/81/25 120/82/25
f 88/48/24 120/82/24 119/83/24
f 87/46/23 119/83/23 118/84/23
f 86/44/22 118/84/22 117/85/22
f 85/42/21 117/85/21 116/86/21
f 84/40/20 116/86/20 115/87/20
f 83/38/19 115/87/19 114/88/19
f 82/36/18 114/88/18 113/89/18
f 149/90/36 131/91/36 147/92/36
f 148/93/37 176/94/37 152/95/37
f 79/30/15 111/96/15 110/97/15
f 78/28/14 110/97/14 109/98/14
f 77/26/13 109/98/13 108/99/13
f 76/24/12 108/99/12 107/100/12
f 75/21/11 107/100/11 106/101/11
f 74/22/10 106/101/10 105/102/10
f 73/17/9 105/103/9 104/104/9
f 72/15/8 104/104/8 103/105/8
f 71/13/7 103/105/7 102/106/7
f 70/11/6 102/106/6 101/107/6
f 69/9/5 101/107/5 100/108/5
f 68/7/4 100/108/4 99/109/4
f 67/5/3 99/109/3 98/110/3
f 66/2/2 98/110/2 97/111/2
f 142/112/36 155/113/36 137/114/36
f 128/115/1 3/116/1 1/117/1
f 97/111/2 5/118/2 3/116/2
f 98/110/3 7/119/3 5/118/3
f 99/109/4 9/120/4 7/119/4
f 100/108/5 11/121/5 9/120/5
f 101/107/6 13/122/6 11/121/6
f 102/106/7 15/123/7 13/122/7
f 103/105/8 17/124/8 15/123/8
f 104/104/9 19/125/9 17/124/9
f 105/102/10 21/126/10 19/127/10
f 106/101/11 23/128/11 21/126/11
f 107/100/12 25/129/12 23/128/12
f 108/99/13 27/130/13 25/129/13
f 109/98/14 29/131/14 27/130/14
f 110/97/15 31/132/15 29/131/15
f 111/96/16 33/133/16 31/132/16
f 112/134/17 35/135/17 33/133/17
f 113/89/18 37/136/18 35/135/18
f 114/88/19 39/137/19 37/136/19
f 115/87/20 41/138/20 39/137/20
f 116/86/21 43/139/21 41/138/21
f 117/85/22 45/140/22 43/139/22
f 118/84/23 47/141/23 45/140/23
f 119/83/24 49/142/24 47/141/24
f 120/82/25 51/143/25 49/142/25
f 121/81/26 53/144/26 51/143/26
f 122/80/27 55/145/27 53/144/27
f 123/79/28 57/146/28 55/145/28
f 124/78/29 59/147/29 57/146/29
f 125/77/30 61/148/30 59/147/30
f 126/76/32 63/149/32 61/148/32
f 127/75/33 1/117/33 63/149/33
f 130/150/38 134/151/38 133/152/38
f 129/153/38 133/152/38 132/154/38
f 150/155/37 170/156/37 151/157/37
f 152/95/35 132/154/35 150/155/35
f 129/153/38 172/158/38 130/150/38
f 133/152/38 165/159/38 132/154/38
f 137/114/39 140/160/39 139/161/39
f 135/162/39 138/74/39 140/160/39
f 135/162/39 154/163/39 136/164/39
f 140/160/39 160/165/39 139/161/39
f 142/112/36 139/161/36 146/166/36
f 144/72/35 136/164/35 145/167/35
f 97/168/35 145/169/35 66/170/35
f 96/171/36 146/172/36 127/173/36
f 128/174/34 146/175/34 143/176/34
f 65/177/31 145/169/31 141/178/31
f 65/177/31 142/179/31 96/171/31
f 128/174/34 144/180/34 97/168/34
f 112/181/34 149/182/34 113/183/34
f 81/184/31 152/185/31 80/186/31
f 80/186/35 150/187/35 111/188/35
f 112/181/34 150/187/34 151/189/34
f 81/184/31 147/190/31 148/191/31
f 113/192/36 147/190/36 82/193/36
f 156/194/31 155/195/31 157/196/31
f 156/194/31 154/163/31 153/197/31
f 141/198/40 157/199/40 142/200/40
f 137/114/39 153/201/39 135/162/39
f 145/167/41 156/202/41 141/198/41
f 136/164/35 158/203/35 145/167/35
f 162/204/34 159/73/34 163/205/34
f 162/204/34 160/206/34 161/207/34
f 139/161/36 164/208/36 146/166/36
f 146/209/40 162/210/40 143/211/40
f 138/74/39 161/212/39 140/160/39
f 143/211/41 163/205/41 144/72/41
f 170/213/34 165/159/34 166/214/34
f 170/213/34 167/215/34 168/216/34
f 149/90/36 167/217/36 134/151/36
f 134/151/38 166/218/38 133/152/38
f 151/157/42 168/219/42 149/220/42
f 132/154/35 169/221/35 150/155/35
f 175/222/31 173/223/31 172/224/31
f 175/222/31 171/225/31 176/94/31
f 131/91/36 174/226/36 147/92/36
f 147/227/42 175/228/42 148/93/42
f 130/150/38 173/229/38 131/91/38
f 152/95/35 171/225/35 129/153/35
f 2/1/1 4/4/1 66/2/1
f 4/4/2 6/6/2 67/5/2
f 6/6/3 8/8/3 68/7/3
f 8/8/4 10/10/4 69/9/4
f 10/10/5 12/12/5 70/11/5
f 12/12/6 14/14/6 71/13/6
f 14/14/7 16/16/7 72/15/7
f 16/16/8 18/18/8 73/17/8
f 18/18/9 20/230/9 74/19/9
f 20/20/10 22/23/10 75/21/10
f 22/23/11 24/25/11 76/24/11
f 24/25/12 26/27/12 77/26/12
f 26/27/13 28/29/13 78/28/13
f 28/29/14 30/31/14 79/30/14
f 30/31/15 32/33/15 80/32/15
f 32/33/16 34/35/16 81/34/16
f 34/35/17 36/37/17 82/36/17
f 36/37/18 38/39/18 83/38/18
f 38/39/19 40/41/19 84/40/19
f 40/41/20 42/43/20 85/42/20
f 42/43/21 44/45/21 86/44/21
f 44/45/22 46/47/22 87/46/22
f 46/47/23 48/49/23 88/48/23
f 48/49/24 50/51/24 89/50/24
f 50/51/25 52/53/25 90/52/25
f 52/53/26 54/55/26 91/54/26
f 54/55/27 56/57/27 92/56/27
f 56/57/28 58/59/28 93/58/28
f 58/59/29 60/61/29 94/60/29
f 60/61/30 62/66/30 95/62/30
f 6/231/31 4/232/31 2/233/31
f 2/233/31 64/234/31 6/231/31
f 64/234/31 62/235/31 6/231/31
f 62/235/31 60/236/31 58/237/31
f 58/237/31 56/238/31 54/63/31
f 54/63/31 52/239/31 50/240/31
f 50/240/31 48/241/31 54/63/31
f 48/241/31 46/242/31 54/63/31
f 46/242/31 44/243/31 38/64/31
f 44/243/31 42/244/31 38/64/31
f 42/244/31 40/245/31 38/64/31
f 38/64/31 36/246/31 34/247/31
f 34/247/31 32/248/31 30/249/31
f 30/249/31 28/250/31 26/251/31
f 26/251/31 24/252/31 22/65/31
f 22/65/31 20/253/31 18/254/31
f 18/254/31 16/255/31 22/65/31
f 16/255/31 14/256/31 22/65/31
f 14/256/31 12/257/31 10/258/31
f 10/258/31 8/259/31 6/231/31
f 62/235/31 58/237/31 6/231/31
f 58/237/31 54/63/31 6/231/31
f 38/64/31 34/247/31 22/65/31
f 34/247/31 30/249/31 22/65/31
f 30/249/31 26/251/31 22/65/31
f 14/256/31 10/258/31 22/65/31
f 10/258/31 6/231/31 22/65/31
f 54/63/31 46/242/31 38/64/31
f 6/231/31 54/63/31 22/65/31
f 62/66/32 64/68/32 96/67/32
f 64/68/33 2/1/33 65/3/33
f 63/260/34 1/261/34 3/262/34
f 3/262/34 5/263/34 7/264/34
f 7/264/34 9/265/34 11/266/34
f 11/266/34 13/267/34 7/264/34
f 13/267/34 15/69/34 7/264/34
f 15/69/34 17/268/34 19/269/34
f 19/269/34 21/270/34 15/69/34
f 21/270/34 23/271/34 15/69/34
f 23/271/34 25/272/34 31/70/34
f 25/272/34 27/273/34 31/70/34
f 27/273/34 29/274/34 31/70/34
f 31/70/34 33/275/34 35/276/34
f 35/276/34 37/277/34 39/278/34
f 39/278/34 41/279/34 43/280/34
f 43/280/34 45/281/34 47/71/34
f 47/71/34 49/282/34 51/283/34
f 51/283/34 53/284/34 55/285/34
f 55/285/34 57/286/34 63/260/34
f 57/286/34 59/287/34 63/260/34
f 59/287/34 61/288/34 63/260/34
f 63/260/34 3/262/34 7/264/34
f 31/70/34 35/276/34 47/71/34
f 35/276/34 39/278/34 47/71/34
f 39/278/34 43/280/34 47/71/34
f 47/71/34 51/283/34 63/260/34
f 51/283/34 55/285/34 63/260/34
f 63/260/34 7/264/34 15/69/34
f 15/69/34 23/271/34 31/70/34
f 63/260/34 15/69/34 47/71/34
f 144/72/35 163/205/35 159/73/35
f 95/62/32 96/67/32 127/75/32
f 94/60/30 95/62/30 126/76/30
f 93/58/29 94/60/29 125/77/29
f 92/56/28 93/58/28 124/78/28
f 91/54/27 92/56/27 123/79/27
f 90/52/26 91/54/26 122/80/26
f 89/50/25 90/52/25 121/81/25
f 88/48/24 89/50/24 120/82/24
f 87/46/23 88/48/23 119/83/23
f 86/44/22 87/46/22 118/84/22
f 85/42/21 86/44/21 117/85/21
f 84/40/20 85/42/20 116/86/20
f 83/38/19 84/40/19 115/87/19
f 82/36/18 83/38/18 114/88/18
f 149/90/36 134/151/36 131/91/36
f 148/93/37 175/228/37 176/94/37
f 79/30/15 80/32/15 111/96/15
f 78/28/14 79/30/14 110/97/14
f 77/26/13 78/28/13 109/98/13
f 76/24/12 77/26/12 108/99/12
f 75/21/11 76/24/11 107/100/11
f 74/22/10 75/21/10 106/101/10
f 73/17/9 74/19/9 105/103/9
f 72/15/8 73/17/8 104/104/8
f 71/13/7 72/15/7 103/105/7
f 70/11/6 71/13/6 102/106/6
f 69/9/5 70/11/5 101/107/5
f 68/7/4 69/9/4 100/108/4
f 67/5/3 68/7/3 99/109/3
f 66/2/2 67/5/2 98/110/2
f 142/112/36 157/289/36 155/113/36
f 128/115/1 97/111/1 3/116/1
f 97/111/2 98/110/2 5/118/2
f 98/110/3 99/109/3 7/119/3
f 99/109/4 100/108/4 9/120/4
f 100/108/5 101/107/5 11/121/5
f 101/107/6 102/106/6 13/122/6
f 102/106/7 103/105/7 15/123/7
f 103/105/8 104/104/8 17/124/8
f 104/104/9 105/103/9 19/125/9
f 105/102/10 106/101/10 21/126/10
f 106/101/11 107/100/11 23/128/11
f 107/100/12 108/99/12 25/129/12
f 108/99/13 109/98/13 27/130/13
f 109/98/14 110/97/14 29/131/14
f 110/97/15 111/96/15 31/132/15
f 111/96/16 112/134/16 33/133/16
f 112/134/17 113/89/17 35/135/17
f 113/89/18 114/88/18 37/136/18
f 114/88/19 115/87/19 39/137/19
f 115/87/20 116/86/20 41/138/20
f 116/86/21 117/85/21 43/139/21
f 117/85/22 118/84/22 45/140/22
f 118/84/23 119/83/23 47/141/23
f 119/83/24 120/82/24 49/142/24
f 120/82/25 121/81/25 51/143/25
f 121/81/26 122/80/26 53/144/26
f 122/80/27 123/79/27 55/145/27
f 123/79/28 124/78/28 57/146/28
f 124/78/29 125/77/29 59/147/29
f 125/77/30 126/76/30 61/148/30
f 126/76/32 127/75/32 63/149/32
f 127/75/33 128/115/33 1/117/33
f 130/150/38 131/91/38 134/151/38
f 129/153/38 130/150/38 133/152/38
f 150/155/37 169/221/37 170/156/37
f 152/95/35 129/153/35 132/154/35
f 129/153/38 171/225/38 172/158/38
f 133/152/38 166/218/38 165/159/38
f 137/114/39 135/162/39 140/160/39
f 135/162/39 136/164/39 138/74/39
f 135/162/39 153/201/39 154/163/39
f 140/160/39 161/212/39 160/165/39
f 142/112/36 137/114/36 139/161/36
f 144/72/35 138/74/35 136/164/35
f 97/168/35 144/180/35 145/169/35
f 96/171/36 142/179/36 146/172/36
f 128/174/34 127/290/34 146/175/34
f 65/177/31 66/170/31 145/169/31
f 65/177/31 141/178/31 142/179/31
f 128/174/34 143/176/34 144/180/34
f 112/181/34 151/189/34 149/182/34
f 81/184/31 148/191/31 152/185/31
f 80/186/35 152/185/35 150/187/35
f 112/181/34 111/188/34 150/187/34
f 81/184/31 82/193/31 147/190/31
f 113/192/36 149/291/36 147/190/36
f 156/194/31 153/197/31 155/195/31
f 156/194/31 158/203/31 154/163/31
f 141/198/40 156/202/40 157/199/40
f 137/114/39 155/113/39 153/201/39
f 145/167/41 158/203/41 156/202/41
f 136/164/35 154/163/35 158/203/35
f 162/204/34 161/207/34 159/73/34
f 162/204/34 164/292/34 160/206/34
f 139/161/36 160/165/36 164/208/36
f 146/209/40 164/293/40 162/210/40
f 138/74/39 159/73/39 161/212/39
f 143/211/41 162/210/41 163/205/41
f 170/213/34 169/221/34 165/159/34
f 170/213/34 166/214/34 167/215/34
f 149/90/36 168/294/36 167/217/36
f 134/151/38 167/217/38 166/218/38
f 151/157/42 170/156/42 168/219/42
f 132/154/35 165/159/35 169/221/35
f 175/222/31 174/295/31 173/223/31
f 175/222/31 172/224/31 171/225/31
f 131/91/36 173/229/36 174/226/36
f 147/227/42 174/296/42 175/228/42
f 130/150/38 172/158/38 173/229/38
f 152/95/35 176/94/35 171/225/35
